<?xml version="1.0" standalone="no"?>
<!DOCTYPE svg PUBLIC "-//W3C//DTD SVG 20010904//EN"
 "http://www.w3.org/TR/2001/REC-SVG-20010904/DTD/svg10.dtd">
<svg version="1.0" xmlns="http://www.w3.org/2000/svg"
 width="155.900000pt" height="38.000000pt" viewBox="0 0 155.900000 38.000000"
 preserveAspectRatio="xMidYMid meet">

<g transform="translate(0.000000,38.000000) scale(0.100000,-0.100000)"
fill="#000000" stroke="none">
<path d="M396 273 c-3 -3 -6 -42 -6 -85 0 -63 3 -78 15 -78 10 0 15 11 16 33
l0 32 16 -32 c10 -19 24 -33 34 -33 17 0 17 2 -2 34 -19 33 -19 36 -3 60 14
23 15 26 1 26 -9 0 -23 -10 -31 -22 -16 -22 -16 -21 -16 19 0 40 -10 60 -24
46z"/>
<path d="M817 273 c-9 -8 -9 -126 -1 -147 7 -17 44 -22 44 -6 0 6 -4 10 -10
10 -6 0 -10 32 -10 75 0 69 -6 86 -23 68z"/>
<path d="M16 258 c-3 -7 -7 -43 -10 -80 -6 -57 -4 -68 9 -68 10 0 15 10 15
33 0 49 13 54 26 10 14 -47 35 -49 47 -3 14 56 27 59 27 7 0 -37 4 -47 16 -47
14 0 16 8 10 53 -3 28 -6 65 -6 80 0 24 -4 28 -22 25 -17 -2 -25 -13 -33 -48
-12 -49 -19 -45 -30 13 -5 27 -12 37 -26 37 -11 0 -21 -6 -23 -12z"/>
<path d="M614 236 c-6 -14 -8 -28 -3 -33 4 -4 9 -26 11 -48 2 -33 7 -41 26
-43 25 -4 30 13 7 22 -9 3 -15 18 -15 36 0 18 6 33 15 36 19 8 19 24 0 24 -9
0 -12 6 -9 15 10 25 -20 17 -32 -9z"/>
<path d="M203 223 c-24 -9 -13 -23 18 -23 17 0 28 -4 24 -10 -3 -5 -15 -10
-25 -10 -25 0 -41 -29 -29 -52 7 -13 20 -17 48 -16 l39 1 -3 47 c-1 26 -6 53
-9 59 -7 11 -41 14 -63 4z m45 -75 c-6 -18 -28 -21 -28 -4 0 9 7 16 16 16 9 0
14 -5 12 -12z"/>
<path d="M310 168 c0 -45 3 -58 15 -58 11 0 15 12 15 44 0 30 5 46 15 50 25 9
17 23 -15 23 -30 0 -30 -1 -30 -59z"/>
<path d="M518 219 c-22 -13 -24 -81 -4 -98 17 -14 72 -11 68 4 -1 5 -12 10
-24 10 -12 0 -23 6 -25 13 -3 8 6 12 26 12 26 0 31 4 31 25 0 14 -8 29 -19 35
-24 12 -31 12 -53 -1z m42 -30 c0 -5 -7 -9 -15 -9 -15 0 -20 12 -9 23 8 8 24
-1 24 -14z"/>
<path d="M696 223 c-3 -4 -6 -42 -6 -85 0 -59 3 -79 13 -76 6 3 13 14 15 26 2
16 10 22 27 22 38 0 60 62 36 99 -10 15 -74 25 -85 14z m62 -55 c-2 -21 -8
-33 -18 -33 -10 0 -16 12 -18 33 -3 27 0 32 18 32 18 0 21 -5 18 -32z"/>
<path d="M891 221 c-21 -13 -5 -29 24 -23 14 2 25 0 25 -6 0 -5 -14 -12 -31
-16 -26 -5 -30 -10 -27 -33 3 -25 7 -28 46 -29 l42 -2 0 47 c0 26 -5 52 -12
59 -14 14 -47 15 -67 3z m49 -76 c0 -8 -7 -15 -15 -15 -8 0 -15 7 -15 15 0 8
7 15 15 15 8 0 15 -7 15 -15z"/>
<path d="M1005 206 c-34 -51 7 -113 61 -92 21 8 8 25 -15 19 -13 -3 -20 2 -24
18 -8 30 9 60 30 52 11 -4 14 -2 11 8 -8 25 -45 22 -63 -5z"/>
<path d="M1106 208 c-21 -30 -20 -61 2 -81 21 -19 49 -22 72 -7 16 10 8 13
-26 11 -12 -1 -24 5 -27 13 -5 13 1 16 28 16 28 0 35 4 35 19 0 25 -26 51 -50
51 -10 0 -26 -10 -34 -22z m52 -16 c2 -7 -5 -12 -17 -12 -14 0 -19 5 -14 15 6
17 25 15 31 -3z"/>
</g>
</svg>
