<svg version="1" xmlns="http://www.w3.org/2000/svg" width="28" height="28" viewBox="0 0 28 28"><path fill="#d1e8ff" d="M20.8 19.069l-3.659-3.689c.293-.459.528-.953.698-1.47.185-.535.275-1.095.271-1.66.002-.73-.148-1.452-.441-2.12-.57-1.317-1.621-2.369-2.939-2.94-.667-.293-1.39-.443-2.12-.44-.732-.001-1.458.148-2.13.44-.653.285-1.246.687-1.75 1.19-.501.503-.902 1.097-1.18 1.75-.296.667-.446 1.39-.44 2.12-.009.743.142 1.479.44 2.16.278.653.679 1.247 1.18 1.749 1.03 1.027 2.426 1.6 3.88 1.591 1.12.003 2.21-.349 3.12-1l3.661 3.689c.192.188.452.288.72.28.553 0 .999-.447.999-1-.01-.249-.124-.484-.31-.65zm-4.05-5.069c-.239.539-.578 1.028-1.001 1.439-.84.839-1.982 1.304-3.169 1.291-.606.004-1.208-.11-1.77-.341-1.073-.45-1.922-1.312-2.36-2.39-.231-.562-.347-1.164-.34-1.771-.016-1.189.454-2.334 1.3-3.169.409-.421.894-.76 1.43-1 .559-.241 1.161-.363 1.77-.36.603-.004 1.198.119 1.75.36.532.243 1.013.582 1.42 1 .418.406.759.888.999 1.42.241.552.364 1.147.361 1.75-.005.612-.138 1.214-.39 1.771zM12.5 9.84l-.77 1.56-1.73.26 1.25 1.21-.3 1.72 1.55-.81 1.55.81-.3-1.72 1.25-1.21-1.729-.26z"/></svg>