<svg version="1" xmlns="http://www.w3.org/2000/svg" width="28" height="28" viewBox="0 0 28 28"><circle fill="#d1e8ff" cx="14" cy="8.59" r="2"/><path fill="#d1e8ff" d="M22.45 16.35c-.068-.13-.188-.224-.331-.26l-3.499-.879c-.231-.062-.471.053-.57.27-.801 1.478-2.37 2.373-4.05 2.309-1.701.064-3.286-.859-4.07-2.369-.1-.226-.351-.346-.59-.28l-3.47.95c-.262.067-.422.332-.356.595l.026.075c1.537 3.253 4.864 5.278 8.46 5.15 3.597.128 6.923-1.897 8.46-5.15.057-.133.053-.283-.01-.411zm-15.75.549l2.51-.689c.344.602.815 1.119 1.38 1.521l-1.36 1.819c-1.057-.651-1.929-1.563-2.53-2.651zm7.3 4.001c-1.348-.006-2.677-.312-3.89-.9l1.36-1.801c1.539.714 3.308.743 4.871.081l1.52 1.739c-1.207.575-2.523.878-3.86.891v-.01zm4.76-1.36l-1.509-1.721c.613-.4 1.13-.933 1.509-1.56l2.531.64c-.601 1.088-1.474 2-2.531 2.65v-.009zM14 16.001c1.48 0 2.67-.781 2.76-1.771v-.9199999999999999c-.075-1.338-1.211-2.367-2.55-2.31h-.42c-1.343-.062-2.485.968-2.56 2.31v.9199999999999999c.1.99 1.29 1.771 2.77 1.771z"/></svg>