<svg xmlns="http://www.w3.org/2000/svg" width="16" height="16" viewBox="0 -1 16 16" enable-background="new 0 -1 16 16"><title>paperclip</title><desc>Created with Sketch.</desc><path fill="#1E2831" d="M3.101 13.907c-.761 0-1.477-.294-2.015-.829-.538-.533-.835-1.242-.835-1.999 0-.754.297-1.464.835-1.997l8.157-8.089c1.487-1.473 3.904-1.474 5.391 0 .72.714 1.117 1.663 1.117 2.672s-.397 1.959-1.117 2.673l-6.118 6.067-.632-.627 6.116-6.067c1.137-1.128 1.137-2.963 0-4.092-1.137-1.127-2.987-1.128-4.124 0l-8.159 8.09c-.369.366-.573.854-.573 1.37 0 .52.204 1.007.573 1.374.763.756 2.004.756 2.767 0l6.116-6.068c.391-.384.391-1.01 0-1.395-.387-.385-1.019-.384-1.405.001l-4.079 4.044-.632-.628 4.078-4.044c.735-.729 1.935-.73 2.672 0 .735.73.735 1.918 0 2.648l-6.118 6.066c-.538.536-1.254.83-2.015.83"/></svg>