<svg xmlns="http://www.w3.org/2000/svg" width="16" height="16" viewBox="0.5 0.5 16 16" enable-background="new 0.5 0.5 16 16"><path stroke="#1E2831" stroke-linecap="round" stroke-linejoin="round" d="M11.186 2h-6.667c-.933-.007-1.829.358-2.49 1.016-.661.657-1.031 1.552-1.029 2.484v7c-.005 1.924 1.548 3.49 3.472 3.5h7.055c1.925-.01 3.479-1.576 3.473-3.5v-5.245" fill="none"/><path fill="#1E2831" d="M15.6.7l-7.779 9.745-3.057-3.156c-.166-.221-.479-.266-.7-.1-.221.166-.266.479-.1.7l3.386 4.411.06.07c.157.118.373.118.53 0l.06-.07 8.4-11c.079-.106.113-.239.095-.371s-.089-.249-.195-.329c-.221-.165-.534-.121-.7.1z"/></svg>