<svg version="1" xmlns="http://www.w3.org/2000/svg" width="16" height="16" viewBox="0 0 16 16"><title>Icon/Crate</title><desc>Created with Sketch.</desc><g><path d="M14.5 15h-2.445c2.353-1.246 3.945-3.58 3.945-6.52 0-.277-.223-.501-.5-.501-.276 0-.5.224-.5.501 0 2.782-1.643 4.924-4 5.913v-2.893c0-.275-.223-.5-.5-.5-.275 0-.499.225-.499.5v4c0 .275.224.5.499.5h4c.275 0 .5-.225.5-.5s-.225-.5-.5-.5zM5.5 0h-4c-.276 0-.5.224-.5.5s.224.5.5.5h2.422c-2.343 1.248-3.922 3.58-3.922 6.5 0 .276.224.5.5.5s.5-.224.5-.5c0-2.782 1.644-4.91 4-5.892v2.892c0 .275.223.5.5.5.276 0 .499-.225.499-.5v-4c0-.276-.223-.5-.499-.5zM14.501 0c-.276 0-.501.224-.501.5v2.225c-1.332-1.52-3.195-2.486-5.224-2.677l-.276.003v.987c2.099.154 4.014 1.236 5.221 2.962h-3.221c-.275 0-.5.224-.5.5s.225.5.5.5h4.001c.274 0 .499-.224.499-.5v-4c0-.276-.225-.5-.499-.5zM2.271 12h3.229c.275 0 .5-.223.5-.5 0-.275-.225-.499-.5-.499h-4c-.276 0-.5.224-.5.499v4c0 .275.224.5.5.5s.5-.225.5-.5v-2.227c1.387 1.589 3.353 2.569 5.479 2.7v-1.006c-2.093-.156-4.003-1.242-5.208-2.967z"/></g></svg>