<?xml version="1.0" encoding="utf-8"?>
<!-- Generator: Adobe Illustrator 22.1.0, SVG Export Plug-In . SVG Version: 6.00 Build 0)  -->
<svg version="1.1" id="Layer_2_1_" xmlns="http://www.w3.org/2000/svg" xmlns:xlink="http://www.w3.org/1999/xlink" x="0px" y="0px"
	 width="17.9px" height="14.3px" viewBox="0 0 17.9 14.3" style="enable-background:new 0 0 17.9 14.3;" xml:space="preserve">
<path id="Groupe_227" d="M14.3,13.4c0,0.5-0.3,0.9-0.8,0.9h-0.1h-9c-0.5,0-0.9-0.3-0.9-0.8v-0.1v-5l5.4-4.1l5.4,4.1V13.4z M17.7,7.6
	c-0.3,0.4-0.8,0.5-1.2,0.2l0,0L8.9,2L1.4,7.9C1,8.1,0.5,8.1,0.2,7.6l0,0C-0.1,7.3,0,6.8,0.4,6.4l0,0l8-6.3C8.7,0,9.1,0,9.5,0.1
	l8.1,6.3C17.9,6.8,18,7.3,17.7,7.6L17.7,7.6z"/>
</svg>
