<?xml version="1.0" encoding="utf-8"?>
<!-- Generator: Adobe Illustrator 22.1.0, SVG Export Plug-In . SVG Version: 6.00 Build 0)  -->
<svg version="1.1" id="Layer_1" xmlns="http://www.w3.org/2000/svg" xmlns:xlink="http://www.w3.org/1999/xlink" x="0px" y="0px"
	 width="32px" height="32px" viewBox="0 0 32 32" style="enable-background:new 0 0 32 32;" xml:space="preserve">
<path id="Layer_1_1_" d="M16,0L16,0C7.2,0,0,7.2,0,16s7.2,16,16,16s16-7.2,16-16l0,0C32,7.2,24.8,0,16,0z M16,30.1L16,30.1L16,30.1
	C8.2,30.1,1.9,23.8,1.9,16S8.2,1.9,16,1.9S30.1,8.2,30.1,16l0,0C30.1,23.8,23.8,30.1,16,30.1L16,30.1z M14,13h4v13h-4V13z M14,7h4v4
	h-4V7z"/>
</svg>
