<?xml version="1.0" encoding="utf-8"?>
<!-- Generator: Adobe Illustrator 22.1.0, SVG Export Plug-In . SVG Version: 6.00 Build 0)  -->
<svg version="1.1" id="Layer_1" xmlns="http://www.w3.org/2000/svg" xmlns:xlink="http://www.w3.org/1999/xlink" x="0px" y="0px"
	 width="32px" height="32px" viewBox="0 0 32 32" style="enable-background:new 0 0 32 32;" xml:space="preserve">
<path d="M16,0L16,0C7.2,0,0,7.2,0,16s7.2,16,16,16s16-7.2,16-16S24.9,0,16,0z M16,30.1L16,30.1L16,30.1C8.2,30.1,1.9,23.8,1.9,16
	c0-3,1-5.8,2.6-8.1l20.7,18.9C22.7,28.8,19.5,30.1,16,30.1z M27.1,24.7L6.3,5.8c2.5-2.4,5.9-3.9,9.7-3.9c7.8,0,14.1,6.3,14.1,14.1
	l0,0C30.1,19.3,29,22.3,27.1,24.7z"/>
</svg>
