<?xml version="1.0" encoding="utf-8"?>
<!-- Generator: Adobe Illustrator 22.1.0, SVG Export Plug-In . SVG Version: 6.00 Build 0)  -->
<svg version="1.1" id="Layer_7_copy" xmlns="http://www.w3.org/2000/svg" xmlns:xlink="http://www.w3.org/1999/xlink" x="0px"
	 y="0px" width="33.6px" height="29.7px" viewBox="0 0 33.6 29.7" style="enable-background:new 0 0 33.6 29.7;"
	 xml:space="preserve">
<path d="M18.8,0C11,0,4.6,6,4,13.6l-2.2-4c-0.4-0.4-1-0.5-1.4-0.1s-0.5,1-0.1,1.4l4,6.7l0,0l0,0c0,0,0,0,0,0.1c0,0,0.1,0.1,0.2,0.1
	l0.1,0.1c0.1,0,0.1,0,0.2,0.1c0.1,0,0.1,0,0.2,0s0.1,0,0.2,0s0.1,0,0.2-0.1c0,0,0.1,0,0.1-0.1c0.1,0,0.1,0,0.2-0.1c0,0,0,0,0-0.1
	l0,0l0,0l5-5.7c0.4-0.4,0.3-1-0.1-1.4c-0.4-0.4-1-0.3-1.4,0.1L6,14.3C6.3,7.5,11.9,2,18.8,2c7.1,0,12.8,5.7,12.8,12.8
	s-5.7,12.8-12.8,12.8l0,0l0,0c-0.6,0-1,0.5-1,1s0.5,1,1,1l0,0l0,0c8.2,0,14.9-6.7,14.9-14.9S27,0,18.8,0z"/>
</svg>
