<?xml version="1.0" encoding="utf-8"?>
<!-- Generator: Adobe Illustrator 22.1.0, SVG Export Plug-In . SVG Version: 6.00 Build 0)  -->
<svg version="1.1" id="Groupe_324" xmlns="http://www.w3.org/2000/svg" xmlns:xlink="http://www.w3.org/1999/xlink" x="0px" y="0px"
	 width="38.6px" height="32.1px" viewBox="0 0 38.6 32.1" style="enable-background:new 0 0 38.6 32.1;" xml:space="preserve">
<path d="M5.3,3.7v22.2c0,0.6-0.5,1-1,1c-0.6,0-1-0.5-1-1V3.7c0-0.6,0.5-1,1-1C4.9,2.6,5.3,3.1,5.3,3.7z M1,5.2c-0.6,0-1,0.5-1,1
	v17.6c0,0.6,0.5,1,1,1c0.6,0,1-0.5,1-1V6.3C2,5.7,1.6,5.3,1,5.2z M38.6,23.2c-0.1,4.9-4,8.8-8.9,8.9c-4.9,0-8.9-4-8.9-8.9
	c0-4.9,4-8.9,8.9-8.9C34.6,14.3,38.6,18.3,38.6,23.2z M36.5,23.2c0-3.7-3-6.8-6.7-6.8c0,0-0.1,0-0.1,0c-3.7,0-6.8,3-6.8,6.8
	s3,6.8,6.8,6.8C33.5,30,36.5,27,36.5,23.2z M33,23.5h-2.2V20c0-0.6-0.5-1-1-1c-0.6,0-1,0.5-1,1v4.6c0,0.6,0.5,1,1,1H33
	c0.6,0,1-0.5,1-1S33.6,23.5,33,23.5z M21.7,28.4c0,0.6-0.5,1-1,1v0h-13c-0.6,0-1-0.5-1-1V1c0-0.6,0.5-1,1-1h14.3c0,0,0,0,0,0
	c0.2,0,0.3,0,0.4,0.1c0.1,0,0.2,0.1,0.4,0.2l6.5,6.5c0.1,0.2,0.2,0.5,0.3,0.8v5.2c0,0.6-0.5,1-1,1s-1-0.5-1-1V8.6h-5.5
	c-0.6,0-1-0.5-1-1V2.1H8.6v25.3h12C21.2,27.4,21.7,27.9,21.7,28.4z M23,6.5h3l-3-3V6.5z"/>
</svg>
