<svg baseProfile="tiny" xmlns="http://www.w3.org/2000/svg" width="28" height="28" viewBox="0 0 28 28"><path fill="#0286E0" d="M21.488 6.929c-.273 0-.499.225-.499.5v11.601c0 .75-.27.998-1 .998h-11.991c-.759 0-.999-.149-.999-.9v-9.39c.128-.892.835-1.587 1.728-1.698h4.748c.276 0 .5-.224.5-.5s-.224-.5-.5-.5h-4.748c-1.431.122-2.575 1.24-2.727 2.668v9.393c0 1.302.708 1.899 1.999 1.899h11.991c1.011-.004 1.888-.603 1.999-1.597v-11.984c-.004-.272-.229-.49-.501-.49zm-3.998-.139c-.275 0-.499.224-.499.5v4.747c-.109.884-.79 1.589-1.668 1.729h-4.617l1.289-1.259c.196-.196.196-.514 0-.71-.195-.194-.513-.194-.708 0l-2.139 2.12c-.038.037-.181.193-.178.349.004.155.08.251.116.29l2.119 2.118c.176.217.497.252.714.074.219-.176.252-.494.076-.715l-1.268-1.27h4.616c1.419-.162 2.529-1.302 2.647-2.727v-4.747c0-.276-.22-.499-.5-.499z"/></svg>