<svg xmlns="http://www.w3.org/2000/svg" width="17" height="17" viewBox="-1 0 17 17" enable-background="new -1 0 17 17"><g><title>Page 1</title><desc>Created with Sketch.</desc><path fill="#8592A2" d="M3.354 4.48c1.059-1.06 2.49-1.665 4.019-1.665s2.959.605 4.019 1.665c1.061 1.06 1.666 2.49 1.666 4.02s-.604 2.959-1.665 4.018c-1.061 1.062-2.49 1.666-4.02 1.666-1.53 0-2.96-.604-4.019-1.665-.452-.452-1.186-.452-1.638-.001-.453.452-.453 1.186-.001 1.638 1.49 1.49 3.508 2.344 5.658 2.344s4.168-.854 5.657-2.345c1.489-1.488 2.343-3.506 2.343-5.656s-.854-4.168-2.344-5.657c-1.489-1.489-3.507-2.342-5.656-2.342-2.15 0-4.167.853-5.657 2.343-.453.452-.453 1.185 0 1.638.452.452 1.185.452 1.638-.001z"/></g><g><title>Page 1</title><desc>Created with Sketch.</desc></g></svg>