<svg version="1" xmlns="http://www.w3.org/2000/svg" width="16" height="16" viewBox="0 -0.5 16 16" enable-background="new 0 -0.5 16 16"><title>Fill 1</title><desc>Created with Sketch.</desc><path fill="#FF3B30" d="M8.687 9.055v-4.963c0-.26-.212-.473-.472-.473h-.429c-.26 0-.472.212-.472.473v4.962c0 .26.212.473.472.473h.429c.259 0 .472-.213.472-.472m-.687 1.234c-.497 0-.9.404-.9.901s.403.901.9.901c.498 0 .901-.404.901-.901s-.404-.901-.901-.901m0-8.849c-.385 0-.729.199-.922.533l-5.49 9.509c-.192.334-.192.732 0 1.065.193.334.538.532.922.532h10.98c.386 0 .73-.198.923-.532.192-.333.192-.731 0-1.065l-5.49-9.509c-.193-.334-.537-.533-.923-.533m5.49 13.081h-10.981c-.905 0-1.716-.469-2.169-1.254-.454-.783-.454-1.721 0-2.506l5.49-9.509c.453-.784 1.265-1.252 2.17-1.252.906 0 1.717.468 2.17 1.253l5.49 9.509c.453.785.453 1.723 0 2.507s-1.264 1.252-2.17 1.252"/></svg>