<svg width="16" height="16" viewBox="0 0 16 16" xmlns="http://www.w3.org/2000/svg"><title>Page 1</title><desc>Created with Sketch.</desc><path d="M13.033 1.241c.951 0 1.726.774 1.726 1.725v10.068c0 .951-.775 1.725-1.726 1.725h-10.066c-.952 0-1.726-.774-1.726-1.725v-10.068c0-.951.774-1.725 1.726-1.725h10.066zm2.967 11.792v-10.068c0-1.635-1.331-2.966-2.967-2.966h-10.066c-1.636 0-2.967 1.331-2.967 2.966v10.068c0 1.635 1.331 2.966 2.967 2.966h10.066c1.636 0 2.967-1.331 2.967-2.966zm-7.751-3.892v-.331c.486-.114.932-.361 1.293-.722.511-.511.793-1.192.793-1.914s-.281-1.402-.793-1.913c-1.023-1.022-2.804-1.023-3.828-.001-.243.242-.243.636-.002.878.242.242.636.243.878.001.556-.554 1.519-.554 2.074-.001.276.277.429.646.429 1.036 0 .391-.152.76-.429 1.037-.277.276-.646.429-1.036.429h-.621v1.502c0 .343.278.621.621.621.343 0 .621-.278.621-.621zm.471 2.676c0 .572-.463 1.035-1.035 1.035-.572 0-1.035-.463-1.035-1.035 0-.572.463-1.035 1.035-1.035.572 0 1.035.463 1.035 1.035z" fill="#8592A2"/></svg>