<svg version="1" xmlns="http://www.w3.org/2000/svg" width="28" height="28" viewBox="0 0 28 28"><path fill="#d1e8ff" d="M19.499 15.749h1.001v4.002c.001.271-.106.529-.3.72-.188.181-.438.281-.701.278h-11.999c-.553 0-1-.446-1-.998v-12.001c-.001-.261.099-.512.28-.7.189-.193.45-.301.721-.3h4v1h-4v12.001h11.999v-4.002zm1.871-9.219c.146.125.178.34.07.5l-5.78 8.499c-.062.125-.183.208-.321.22-.134.024-.273-.021-.368-.119l-3.911-4.35c-.154-.117-.186-.335-.07-.49l.07-.07.66-.65c.104-.163.321-.21.483-.106l.107.106 2.5 2.5c.095.095.229.14.359.12.143-.018.26-.115.302-.25l4.529-6.44c.055-.121.169-.204.3-.22.135-.021.271.028.36.129l.71.621z"/></svg>