<svg xmlns="http://www.w3.org/2000/svg" width="8" height="8" viewBox="4.5 4.5 8 8" enable-background="new 4.5 4.5 8 8"><path fill="#d1e8ff" d="M6.49 6.49c.53-.53 1.245-.833 2.01-.833.764 0 1.479.303 2.01.833.53.53.833 1.245.833 2.01s-.303 1.479-.833 2.009c-.53.531-1.245.833-2.01.833-.765 0-1.48-.302-2.01-.832-.226-.227-.593-.227-.819-.001-.227.227-.227.593 0 .819.745.745 1.754 1.172 2.829 1.172s2.084-.427 2.828-1.173c.745-.743 1.172-1.753 1.172-2.827s-.427-2.084-1.172-2.829c-.745-.744-1.754-1.171-2.828-1.171-1.075 0-2.083.427-2.829 1.171-.227.226-.227.592 0 .819.226.227.593.227.819 0z"/></svg>