<?xml version="1.0" encoding="UTF-8"?>
<!-- Created with EazyDraw for Mac ( http://www.eazydraw.com/ ) -->

<svg
    version="1.1"
    xmlns:dc="http://purl.org/dc/elements/1.1/"
    xmlns:cc="http://creativecommons.org/ns#"
    xmlns:rdf="http://www.w3.org/1999/02/22-rdf-syntax-ns#"
    xmlns:svg="http://www.w3.org/2000/svg"
    xmlns:xlink="http://www.w3.org/1999/xlink"
    xmlns="http://www.w3.org/2000/svg"
    width="155.9"
    height="17.7"
    viewBox="0, 0, 155.9, 17.7"
    preserveAspectRatio="none"
    id="svg2">
   <defs
       id="defs_C67AA61E"/>
   <metadata
       id="metadata7">
      <rdf:RDF>
         <cc:Work
             rdf:about="">
            <dc:format>image/svg+xml</dc:format>
            <dc:type rdf:resource="http://purl.org/dc/dcmitype/StillImage"/>
            <dc:title></dc:title>
         </cc:Work>
      </rdf:RDF>
   </metadata>
   <g
       id="layer_Paper"
       style="fill:#000000;fill-opacity:1;stroke:#000000;stroke-opacity:1;fill-rule:nonzero;stroke-linecap:square;stroke-linejoin:miter;stroke-width:1;stroke-miterlimit:10">
      <g
          id="EEF3A11E">
         <path
             style="stroke:none"
             id="4204A11E"
             d="M5.6,1 C7.6,1 8.6,1.3 9.6,2.2 C10.4,3 10.8,3.9 10.8,5.1 C10.8,6.2 10.4,7.1 9.7,7.8 C9.2,8.2 9,8.4 8.2,8.6 C10.2,9.2 11.4,10.6 11.4,12.7 C11.4,14.9 10,17 7.2,17.2 C6.7,17.2 6,17.2 5.1,17.2 L0,17.2 L0,1 L5.6,1
z M3.3,7.5 L5.2,7.5 C6,7.5 6.3,7.4 6.6,7.3 C7,7.1 7.4,6.3 7.4,5.7 C7.4,5 7.1,4.3 6.5,4.1 C6.2,4 5.9,3.9 5.2,3.9 L3.3,3.9 L3.3,7.5 z M3.3,14.5 L5.4,14.5 C6.1,14.5 6.6,14.4 6.9,14.1 C7.4,13.7 7.7,13 7.7,12.2
C7.7,11.3 7.2,10.4 6.5,10.2 C6.1,10.1 5.8,10.1 5.2,10.1 L3.2,10.1 L3.2,14.5 z"/>
         <path
             style="stroke:none"
             id="8404A11E"
             d="M23.3,17.2 L13.6,17.2 L13.6,14.4 C14.4,14 14.6,14 16,13.2 C19.2,11.4 20,10.3 20,9.3 C20,8.3 19.2,7.7 18.1,7.7 C17.1,7.7 16.2,8.1 14.9,9.2 L13,7.3 C14.7,5.8 16.5,5 18.9,5 C21.7,5 23.4,6.5 23.4,8.8 C23.4,10.5 22.5,11.6 21.2,12.6
C20.4,13.2 18.9,13.9 18,14.5 C17.9,14.6 17.6,14.7 17.4,14.8 C17.9,14.7 18.9,14.7 19.7,14.7 L23.9,14.7 L23.3,17.2 z"/>
         <path
             style="stroke:none"
             id="D604A11E"
             d="M35.7,4.2 C34.9,3.6 34,3.3 33.1,3.3 C32,3.3 30.9,3.8 30.4,4.7 C29.8,5.6 29.5,7 29.5,8.9 C29.5,11.1 29.7,12.3 30.2,13.2 C30.9,14.4 31.9,15 33.3,15 C34.3,15 35.1,14.7 36.1,14 L37.6,16 C36.3,17 35,17.5 33.1,17.5
C30.9,17.5 29.1,16.8 27.8,15.3 C26.5,13.8 25.8,11.9 25.8,9.5 C25.8,7.5 26.1,5.9 26.9,4.5 C28.2,2.2 30.5,0.8 33.1,0.8 C34.7,0.8 36.3,1.3 37.2,2.1 L35.7,4.2 z"/>
         <path
             style="stroke:none"
             id="D804A11E"
             d="M51.5,1 L56.6,17.2 L53.1,17.2 L52,13.4 L47.3,13.4 L46.2,17.2 L42.8,17.2 L48.1,1 L51.5,1 z M51.1,10.6 C51.1,10.6 50.6,8.9 50.2,7.3 C50,6.6 49.5,4.4 49.5,4.4 C49.5,4.4 49.1,6.4 48.8,7.6 C48.5,8.8 48.3,9.5 47.9,10.6
L51.1,10.6 z"/>
         <path
             style="stroke:none"
             id="2B04A11E"
             d="M64.5,8.3 C63.9,7.7 63.2,7.4 62.6,7.4 C61.2,7.4 60.6,8.6 60.6,11.4 C60.6,13 60.8,13.9 61.2,14.4 C61.5,14.8 62.1,15.1 62.6,15.1 C63.3,15.1 64,14.8 64.7,14.1 L64.9,13.9 L66.3,15.8 C65.8,16.3 65.6,16.4 65.2,16.7
C64.4,17.2 63.4,17.4 62.3,17.4 C59,17.4 57.1,15.1 57.1,11.3 C57.1,8.6 58.1,6.7 59.5,5.8 C60.3,5.3 61.5,4.9 62.5,4.9 C63.3,4.9 64.2,5.1 64.8,5.4 C65.2,5.6 65.5,5.8 66,6.2 L64.5,8.3 z"/>
         <path
             style="stroke:none"
             id="4D04A11E"
             d="M74.8,8.3 C74.2,7.7 73.5,7.4 72.9,7.4 C71.5,7.4 70.9,8.6 70.9,11.4 C70.9,13 71.1,13.9 71.5,14.4 C71.8,14.8 72.4,15.1 72.9,15.1 C73.6,15.1 74.3,14.8 75,14.1 L75.2,13.9 L76.6,15.8 C76.1,16.3 75.9,16.4 75.5,16.7
C74.7,17.2 73.7,17.4 72.6,17.4 C69.3,17.4 67.4,15.1 67.4,11.3 C67.4,8.6 68.4,6.7 69.8,5.8 C70.6,5.3 71.8,4.9 72.8,4.9 C73.6,4.9 74.5,5.1 75.1,5.4 C75.5,5.6 75.8,5.8 76.3,6.2 L74.8,8.3 z"/>
         <path
             style="stroke:none"
             id="5F04A11E"
             d="M87.7,15.9 C86.3,17 84.9,17.6 83.2,17.6 C79.8,17.6 77.6,15.2 77.6,11.4 C77.6,9.3 78,7.8 79.1,6.7 C80.1,5.6 81.3,5.1 82.8,5.1 C84.2,5.1 85.5,5.6 86.2,6.4 C87.3,7.5 87.8,9.1 87.8,11.6 C87.8,11.9 87.8,12.1 87.8,12.3
L80.9,12.3 L80.9,12.4 C80.9,14.2 81.8,15.3 83.4,15.3 C84.5,15.3 85.5,14.9 86.4,14.1 L87.7,15.9 z M84.6,9.9 L84.6,9.8 C84.6,8.9 84.5,8.5 84.2,8 C83.9,7.5 83.5,7.3 82.8,7.3 C81.6,7.3 80.9,8.2 80.9,9.9 L80.9,9.9
L84.6,9.9 z"/>
         <path
             style="stroke:none"
             id="5114A11E"
             d="M93.3,3.1 L93.3,12.4 C93.3,14.4 93.3,14.7 93.5,15.1 C93.6,15.3 93.9,15.4 94.1,15.4 C94.2,15.4 94.3,15.4 94.4,15.4 L94.9,17.3 C94.4,17.5 93.7,17.6 93,17.6 C91.7,17.6 90.6,17 90.2,16 C90,15.4 89.9,15 89.9,13.3
L89.9,4.3 C89.9,2.7 89.9,1.8 89.7,0.7 L92.9,0 C93.2,0.6 93.3,1.4 93.3,3.1 z"/>
         <path
             style="stroke:none"
             id="7314A11E"
             d="M106.6,15.9 C105.2,17 103.8,17.6 102.1,17.6 C98.7,17.6 96.5,15.2 96.5,11.4 C96.5,9.3 96.9,7.8 98,6.7 C99,5.6 100.2,5.1 101.7,5.1 C103.1,5.1 104.4,5.6 105.1,6.4 C106.2,7.5 106.7,9.1 106.7,11.6 C106.7,11.9 106.7,12.1 106.7,12.3
L99.8,12.3 L99.8,12.4 C99.8,14.2 100.7,15.3 102.3,15.3 C103.4,15.3 104.4,14.9 105.3,14.1 L106.6,15.9 z M103.5,9.9 L103.5,9.8 C103.5,8.9 103.4,8.5 103.1,8 C102.8,7.5 102.4,7.3 101.7,7.3 C100.5,7.3 99.8,8.2 99.8,9.9
L99.8,9.9 L103.5,9.9 z"/>
         <path
             style="stroke:none"
             id="7514A11E"
             d="M111.5,5 C111.8,5.5 111.9,6 112,6.7 C112.4,6.1 113.2,5.4 113.8,5.2 C114.1,5.1 114.5,5 114.8,5 C115.3,5 115.5,5 116,5.3 L115.1,8 C114.8,7.8 114.5,7.8 114.2,7.8 C113.5,7.8 112.9,8.1 112.3,8.8 L112.3,17.2
L109.2,17.2 L109.2,9.3 C109.2,7.7 109,6.5 108.8,5.8 L111.5,5 z"/>
         <path
             style="stroke:none"
             id="9714A11E"
             d="M118.5,5.7 C119.7,5.2 120.7,5 121.8,5 C123.8,5 125.2,5.7 125.6,7.1 C125.8,7.6 125.8,8 125.8,9.2 L125.7,13.2 C125.7,13.3 125.7,13.3 125.7,13.4 C125.7,14.7 125.9,15.2 126.8,15.8 L125.2,17.7 C124.5,17.4 123.8,16.9 123.5,16.3
C123.3,16.5 123,16.8 122.8,16.9 C122.2,17.3 121.4,17.6 120.4,17.6 C117.8,17.6 116.3,16.3 116.3,13.9 C116.3,11.1 118.2,9.8 122,9.8 C122.2,9.8 122.4,9.8 122.7,9.8 L122.7,9.3 C122.7,8 122.4,7.5 121.3,7.5 C120.3,7.5 119.1,8 117.9,8.8
L116.6,6.6 C117.2,6.3 117.7,6.1 118.5,5.7 z M122.6,12 C120.4,12 119.7,12.4 119.7,13.8 C119.7,14.7 120.3,15.4 121.1,15.4 C121.7,15.4 122.3,15.1 122.7,14.6 L122.7,12 L122.6,12 z"/>
         <path
             style="stroke:none"
             id="A914A11E"
             d="M134,7.4 L132,7.4 L132,13.4 C132,14.9 132.3,15.3 133.3,15.3 C133.6,15.3 133.9,15.2 134.4,15.1 L134.8,17 C133.9,17.4 133.1,17.5 132.3,17.5 C130.7,17.5 129.5,16.8 129.1,15.8 C128.9,15.3 128.9,15.1 128.9,14
L128.9,7.4 L127.7,7.4 L127.7,5.3 L128.9,5.3 C128.9,4.1 128.9,3.4 129,2.5 L132.2,1.7 C132.1,2.8 132,4.1 132,5.3 L134.8,5.3 L134,7.4 z"/>
         <path
             style="stroke:none"
             id="DB14A11E"
             d="M145.3,6.8 C146.3,7.9 146.7,9.2 146.7,11.1 C146.7,13.1 146.2,14.5 145.2,15.7 C144.3,16.7 143.1,17.3 141.3,17.3 C138.1,17.3 136,14.9 136,11.1 C136,7.3 138.1,4.9 141.3,4.9 C143,5 144.3,5.6 145.3,6.8 z M139.7,8.6
C139.5,9.2 139.4,10.1 139.4,11.2 C139.4,12.6 139.5,13.6 139.8,14.2 C140.1,14.9 140.8,15.2 141.4,15.2 C142.7,15.2 143.3,14 143.3,11.2 C143.3,9.6 143.1,8.6 142.7,8 C142.4,7.6 141.9,7.4 141.4,7.4 C140.6,7.3 140,7.8 139.7,8.6
z"/>
         <path
             style="stroke:none"
             id="ED14A11E"
             d="M151.4,5 C151.7,5.5 151.8,6 151.9,6.7 C152.3,6.1 153.1,5.4 153.7,5.2 C154,5.1 154.4,5 154.7,5 C155.2,5 155.4,5 155.9,5.3 L155,8 C154.7,7.8 154.4,7.8 154.1,7.8 C153.4,7.8 152.8,8.1 152.2,8.8 L152.2,17.2
L149.1,17.2 L149.1,9.3 C149.1,7.7 148.9,6.5 148.7,5.8 L151.4,5 z"/>
      </g>
   </g>
</svg>
