<svg xmlns="http://www.w3.org/2000/svg" viewBox="0 0 28 28"><defs><style>.cls-1{fill:none;}.cls-2{fill:#0286E0;}</style></defs><title>enumerat_hover</title><g id="Ebene_1-2"><path id="Bounding_Box" class="cls-1" d="M0 0h28v28h-28z"/><path class="cls-2" d="M18.588 9.6l-2.474 2.474-1.06-1.06a.5.5 0 0 0-.707.707l1.411 1.411.002.004a.503.503 0 0 0 .708 0l.002-.004 2.825-2.825a.5.5 0 0 0-.707-.707zM16.5 6a5.472 5.472 0 0 0-5.464 5.032 5.494 5.494 0 1 0 5.953 5.929 5.491 5.491 0 0 0-.489-10.961zm-5 15a4.495 4.495 0 0 1-.459-8.967 5.452 5.452 0 0 0 1.26 2.958l-.787.787-1.061-1.061a.5.5 0 1 0-.707.707l1.061 1.061-1.061 1.061a.5.5 0 1 0 .707.707l1.061-1.061 1.061 1.061a.5.5 0 1 0 .707-.707l-1.061-1.061.787-.787a5.452 5.452 0 0 0 2.958 1.26 4.516 4.516 0 0 1-4.466 4.042zm5-5a4.5 4.5 0 1 1 4.5-4.5 4.505 4.505 0 0 1-4.5 4.5z"/></g></svg>